<?xml version="1.0" encoding="UTF-8" standalone="no"?>
<svg
   style="height: 512px; width: 512px;"
   viewBox="0 0 512 512"
   version="1.1"
   id="svg188"
   sodipodi:docname="ww1-round.svg"
   inkscape:version="1.2.1 (9c6d41e, 2022-07-14)"
   inkscape:export-filename="../core-design/src/ww1/res/drawable-mdpi/ic_splash.png"
   inkscape:export-xdpi="9"
   inkscape:export-ydpi="9"
   xmlns:inkscape="http://www.inkscape.org/namespaces/inkscape"
   xmlns:sodipodi="http://sodipodi.sourceforge.net/DTD/sodipodi-0.dtd"
   xmlns="http://www.w3.org/2000/svg"
   xmlns:svg="http://www.w3.org/2000/svg">
  <defs
     id="defs192" />
  <sodipodi:namedview
     id="namedview190"
     pagecolor="#ffffff"
     bordercolor="#000000"
     borderopacity="0.25"
     inkscape:showpageshadow="2"
     inkscape:pageopacity="0.0"
     inkscape:pagecheckerboard="true"
     inkscape:deskcolor="#d1d1d1"
     showgrid="false"
     inkscape:zoom="1.1573539"
     inkscape:cx="223.78635"
     inkscape:cy="260.07602"
     inkscape:window-width="1728"
     inkscape:window-height="1080"
     inkscape:window-x="0"
     inkscape:window-y="37"
     inkscape:window-maximized="0"
     inkscape:current-layer="svg188" />
  <circle
     style="fill:#ffffff;fill-opacity:1;stroke:#784421;stroke-width:9.809;stroke-linecap:round;stroke-linejoin:round;stroke-opacity:1;paint-order:stroke fill markers"
     id="path1852"
     cx="256"
     cy="256"
     r="251.09549" />
  <g
     id="g504"
     transform="matrix(0.8344152,0,0,0.8344152,42.378258,49.42853)">
    <path
       style="fill:#784421;stroke-width:8.64094;stroke-linecap:round;stroke-linejoin:round;paint-order:stroke fill markers;fill-opacity:1"
       d="M 238.90704,263.82188 C 189.5469,260.36344 152.557,252.92071 126.41603,241.18756 c -12.03272,-5.40077 -22.98486,-14.06731 -26.903997,-21.2894 -4.03571,-7.43689 -1.523931,-31.55751 5.169727,-49.64485 6.86297,-18.54487 15.88391,-32.17502 31.77652,-48.01257 15.42057,-15.36714 30.24616,-25.347254 49.86228,-33.565679 35.16667,-14.733526 74.67084,-17.808441 111.46437,-8.676133 46.07371,11.43569 84.98227,41.461792 104.40477,80.570142 7.95367,16.01519 12.12348,32.47549 12.10901,47.80028 -0.007,7.74682 -0.30078,9.56472 -2.20405,13.65356 -3,6.44495 -7.23834,11.38977 -13.73769,16.02762 -18.71132,13.35212 -51.47697,22.00969 -96.33172,25.45346 -10.40307,0.79871 -53.18092,1.01415 -63.11821,0.31789 z"
       id="path434" />
    <path
       style="fill:#784421;stroke-width:8.64094;stroke-linecap:round;stroke-linejoin:round;paint-order:stroke fill markers;fill-opacity:1"
       d="M 229.787,311.85862 C 131.98454,307.73751 52.319106,281.03538 35.342193,246.68493 c -3.986942,-8.06703 -4.654342,-13.79509 -2.52421,-21.66444 2.824012,-10.43274 11.995032,-20.91688 26.545665,-30.3465 5.605078,-3.63241 22.469213,-12.46849 22.925646,-12.01206 0.123601,0.1236 -0.350972,4.27532 -1.054606,9.22604 -1.805921,12.70633 -1.687674,23.62182 0.325981,30.0917 9.365819,30.09244 57.447101,50.04529 140.065571,58.12464 15.90344,1.55521 77.82243,1.54862 92.45227,-0.01 69.2644,-7.37851 106.62564,-25.55606 116.49067,-56.67675 1.76957,-5.58239 1.6732,-22.94261 -0.18483,-33.29515 -0.72164,-4.0208 -1.20104,-7.42159 -1.06533,-7.5573 0.6433,-0.6433 17.43108,8.25782 24.77204,13.13449 19.97778,13.27143 29.23173,29.14687 25.49416,43.73603 -4.09463,15.9829 -20.15298,30.25182 -48.18203,42.81295 -37.4515,16.78377 -89.84085,27.01859 -151.88627,29.67261 -21.37068,0.91415 -26.70667,0.90742 -49.72992,-0.0627 z"
       id="path436" />
    <path
       style="fill:#784421;stroke-width:8.64094;stroke-linecap:round;stroke-linejoin:round;paint-order:stroke fill markers;fill-opacity:1"
       d="m 240.29709,423.38739 c -46.56155,-5.88593 -88.37844,-37.89168 -111.11396,-85.04423 -4.92435,-10.21289 -9.8911,-22.8791 -9.23052,-23.53968 0.18267,-0.18267 4.1259,0.55153 8.76274,1.63156 l 8.43062,1.96367 3.61184,8.20838 c 7.29803,16.58574 17.46091,31.72919 29.7695,44.35876 18.13752,18.61052 38.78578,30.24 62.56157,35.23583 11.33396,2.38152 30.2889,2.58497 41.40124,0.44436 39.85378,-7.67714 72.99919,-35.15668 92.81313,-76.94768 l 5.09796,-10.75248 8.00975,-1.85186 c 4.40536,-1.01853 8.38705,-1.72486 8.8482,-1.56964 1.33447,0.44918 -7.99328,22.41193 -13.90522,32.74066 -7.79131,13.61216 -17.27081,25.75127 -28.98277,37.11428 -19.50746,18.92626 -41.87001,31.0441 -66.87981,36.2409 -10.20396,2.12028 -29.5137,2.99091 -39.19427,1.76717 z"
       id="path438" />
  </g>
</svg>
